<?xml version="1.0" encoding="UTF-8" standalone="no"?>
<!-- Created with Inkscape (http://www.inkscape.org/) -->

<svg
   xmlns:dc="http://purl.org/dc/elements/1.1/"
   xmlns:cc="http://creativecommons.org/ns#"
   xmlns:rdf="http://www.w3.org/1999/02/22-rdf-syntax-ns#"
   xmlns:svg="http://www.w3.org/2000/svg"
   xmlns="http://www.w3.org/2000/svg"
   version="1.1"
   width="714"
   height="650"
   viewBox="0 0 714 650"
   id="svg2"
   xml:space="preserve"><metadata
   id="metadata1456"><rdf:RDF><cc:Work
       rdf:about=""><dc:format>image/svg+xml</dc:format><dc:type
         rdf:resource="http://purl.org/dc/dcmitype/StillImage" /><dc:title></dc:title></cc:Work></rdf:RDF></metadata><defs
   id="defs1454" />

<g
   transform="matrix(13.524372,0,0,13.524372,-9753.279,-751.78802)"
   id="Android"
   style="fill:#ffffff">
	<g
   id="g476"
   style="fill:#ffffff">
		<path
   d="m 733.131,71.669 c -1.52,0 -2.75,1.25 -2.75,2.793 v 10.914 c 0,1.542 1.23,2.794 2.75,2.794 1.52,0 2.75,-1.252 2.75,-2.794 V 74.462 c 0,-1.543 -1.231,-2.793 -2.75,-2.793 l 0,0 z"
   id="path478"
   style="fill:#ffffff" />
		<path
   d="m 737.881,71.831 v 19.752 c 0,1.174 0.953,2.125 2.125,2.125 h 2.426 v 6.015 c 0,1.527 1.221,2.766 2.725,2.766 1.504,0 2.725,-1.238 2.725,-2.766 v -6.015 h 4.24 v 6.015 c 0,1.527 1.217,2.766 2.725,2.766 1.504,0 2.723,-1.238 2.723,-2.766 v -6.015 h 2.428 c 1.172,0 2.123,-0.952 2.123,-2.125 V 71.831 h -24.24 l 0,0 0,0 z"
   id="path480"
   style="fill:#ffffff" />
		<path
   d="m 766.871,71.666 c -1.518,0 -2.752,1.252 -2.752,2.795 v 10.918 c 0,1.543 1.234,2.795 2.752,2.795 1.52,0 2.748,-1.252 2.748,-2.795 V 74.46 c 0,-1.543 -1.228,-2.794 -2.748,-2.794 l 0,0 z"
   id="path482"
   style="fill:#ffffff" />
		<path
   d="m 756.357,61.695 2.303,-3.384 c 0.311,-0.456 0.193,-1.079 -0.264,-1.39 -0.457,-0.311 -1.08,-0.192 -1.389,0.265 l -2.512,3.69 c -1.393,-0.482 -2.904,-0.759 -4.496,-0.759 -1.59,0 -3.102,0.276 -4.494,0.758 l -2.512,-3.69 c -0.313,-0.456 -0.934,-0.574 -1.391,-0.264 -0.457,0.31 -0.574,0.934 -0.264,1.39 l 2.305,3.384 c -3.225,1.721 -5.465,4.692 -5.764,8.146 h 24.238 c -0.297,-3.455 -2.535,-6.426 -5.76,-8.146 z m -11.468,4.794 c -0.74,0 -1.342,-0.601 -1.342,-1.341 0,-0.74 0.6,-1.341 1.342,-1.341 0.74,0 1.34,0.601 1.34,1.341 0,0.74 -0.6,1.341 -1.34,1.341 z m 10.392,0 c -0.742,0 -1.34,-0.601 -1.34,-1.341 0,-0.74 0.598,-1.341 1.34,-1.341 0.74,0 1.342,0.601 1.342,1.341 0,0.74 -0.602,1.341 -1.342,1.341 z"
   id="path484"
   style="fill:#ffffff" />
	</g>
</g>
























































































































</svg>