<svg xmlns:dc="http://purl.org/dc/elements/1.1/" xmlns:cc="http://creativecommons.org/ns#" xmlns:rdf="http://www.w3.org/1999/02/22-rdf-syntax-ns#" xmlns:svg="http://www.w3.org/2000/svg" xmlns="http://www.w3.org/2000/svg" version="1.1" width="714" height="650" viewBox="0 0 714 650" xml:space="preserve"><metadata><rdf:RDF><cc:Work rdf:about=""><dc:format>image/svg+xml</dc:format><dc:type rdf:resource="http://purl.org/dc/dcmitype/StillImage"/><dc:title/></cc:Work></rdf:RDF></metadata><defs/><path d="m 161.9 217.5 c -20.6 0 -37.2 16.9 -37.2 37.8 v 147.6 c 0 20.9 16.6 37.8 37.2 37.8 20.6 0 37.2 -16.9 37.2 -37.8 V 255.3 c 0 -20.9 -16.6 -37.8 -37.2 -37.8 l 0 0 z" style="fill:#ffffff"/><path d="m 226.1 219.7 v 267.1 c 0 15.9 12.9 28.7 28.7 28.7 h 32.8 v 81.3 c 0 20.7 16.5 37.4 36.9 37.4 20.3 0 36.9 -16.7 36.9 -37.4 v -81.3 h 57.3 v 81.3 c 0 20.7 16.5 37.4 36.9 37.4 20.3 0 36.8 -16.7 36.8 -37.4 v -81.3 h 32.8 c 15.9 0 28.7 -12.9 28.7 -28.7 V 219.7 H 226.1 l 0 0 0 0 z" style="fill:#ffffff"/><path d="m 618.2 217.4 c -20.5 0 -37.2 16.9 -37.2 37.8 v 147.7 c 0 20.9 16.7 37.8 37.2 37.8 20.6 0 37.2 -16.9 37.2 -37.8 V 255.2 c 0 -20.9 -16.6 -37.8 -37.2 -37.8 l 0 0 z" style="fill:#ffffff"/><path d="m 476 82.6 31.1 -45.8 c 4.2 -6.2 2.6 -14.6 -3.6 -18.8 -6.2 -4.2 -14.6 -2.6 -18.8 3.6 L 450.8 71.5 C 432 65 411.5 61.3 390 61.3 c -21.5 0 -42 3.7 -60.8 10.3 l -34 -50 C 291 15.4 282.6 13.8 276.4 18 c -6.2 4.2 -7.8 12.6 -3.6 18.8 L 304 82.6 c -43.6 23.3 -73.9 63.5 -78 110.2 h 327.8 c -4 -46.7 -34.3 -86.9 -77.9 -110.2 z m -155.1 64.8 c -10 0 -18.1 -8.1 -18.1 -18.1 0 -10 8.1 -18.1 18.1 -18.1 10 0 18.1 8.1 18.1 18.1 0 10 -8.1 18.1 -18.1 18.1 z m 140.5 0 c -10 0 -18.1 -8.1 -18.1 -18.1 0 -10 8.1 -18.1 18.1 -18.1 10 0 18.1 8.1 18.1 18.1 0 10 -8.1 18.1 -18.1 18.1 z" style="fill:#ffffff"/></svg>