<svg xmlns:dc="http://purl.org/dc/elements/1.1/" xmlns:cc="http://creativecommons.org/ns#" xmlns:rdf="http://www.w3.org/1999/02/22-rdf-syntax-ns#" xmlns:svg="http://www.w3.org/2000/svg" xmlns="http://www.w3.org/2000/svg" version="1.1" width="456" height="560" viewBox="0 0 456.008 560.034" id="&#22270;&#23618;_1" xml:space="preserve"><metadata id="metadata2995"><rdf:RDF><cc:Work rdf:about=""><dc:format>image/svg+xml</dc:format><dc:type rdf:resource="http://purl.org/dc/dcmitype/StillImage"/><dc:title/></cc:Work></rdf:RDF></metadata><defs id="defs2993"/><path d="m 358.8 295 c 0.7 72.5 63.6 96.7 64.3 97 -0.5 1.7 -10.1 34.4 -33.2 68.2 -20 29.2 -40.7 58.3 -73.4 58.9 -32.1 0.6 -42.4 -19 -79.1 -19 -36.7 0 -48.2 18.4 -78.5 19.6 -31.5 1.2 -55.5 -31.6 -75.7 -60.7 C 42.1 399.5 10.7 290.8 52.9 217.5 c 21 -36.4 58.5 -59.5 99.2 -60.1 31 -0.6 60.2 20.8 79.1 20.8 18.9 0 54.4 -25.8 91.8 -22 15.6 0.7 59.5 6.3 87.7 47.5 -2.3 1.4 -52.3 30.6 -51.8 91.2" id="path2985" style="fill:#ffffff"/><path d="m 298.5 116.9 c 16.7 -20.3 28 -48.5 24.9 -76.5 -24.1 1 -53.3 16.1 -70.6 36.3 -15.5 17.9 -29.1 46.6 -25.4 74.1 26.9 2.1 54.4 -13.7 71.1 -33.9" id="path2989" style="fill:#ffffff"/></svg>