<?xml version="1.0" encoding="UTF-8" standalone="no"?>
<!-- Created with Inkscape (http://www.inkscape.org/) -->

<svg
   xmlns:dc="http://purl.org/dc/elements/1.1/"
   xmlns:cc="http://creativecommons.org/ns#"
   xmlns:rdf="http://www.w3.org/1999/02/22-rdf-syntax-ns#"
   xmlns:svg="http://www.w3.org/2000/svg"
   xmlns="http://www.w3.org/2000/svg"
   version="1.1"
   width="456.008"
   height="560.034"
   viewBox="0 0 456.008 560.034"
   id="图层_1"
   xml:space="preserve"><metadata
   id="metadata2995"><rdf:RDF><cc:Work
       rdf:about=""><dc:format>image/svg+xml</dc:format><dc:type
         rdf:resource="http://purl.org/dc/dcmitype/StillImage" /><dc:title></dc:title></cc:Work></rdf:RDF></metadata><defs
   id="defs2993" />
<path
   d="m 358.82473,295.00616 c 0.67362,72.54113 63.63772,96.68099 64.33531,96.98913 -0.53239,1.70245 -10.06063,34.40164 -33.17252,68.17759 -19.97918,29.20099 -40.715,58.29499 -73.37995,58.89756 -32.09661,0.59145 -42.41744,-19.03337 -79.11298,-19.03337 -36.68441,0 -48.15133,18.4308 -78.53437,19.62482 -31.52998,1.19317 -55.53974,-31.57706 -75.684968,-60.67106 C 42.110893,399.47785 10.652807,290.82151 52.893074,217.47665 c 20.98404,-36.42335 58.484156,-59.48816 99.187166,-60.07961 30.96164,-0.59059 60.18574,20.82997 79.11298,20.82997 18.91525,0 54.42874,-25.76014 91.76281,-21.97692 15.62932,0.65051 59.501,6.31336 87.6723,47.54876 -2.26993,1.40716 -52.34797,30.56022 -51.8036,91.20731 M 298.50289,116.8772 c 16.73947,-20.262489 28.00611,-48.469743 24.93246,-76.535768 -24.12874,0.969772 -53.30576,16.078691 -70.61272,36.330053 -15.51035,17.933497 -29.094,46.637195 -25.4289,74.147715 26.89426,2.08077 54.36883,-13.66667 71.10916,-33.942"
   id="path2989"
   style="fill:#ffffff" />
</svg>