<svg xmlns:dc="http://purl.org/dc/elements/1.1/" xmlns:cc="http://creativecommons.org/ns#" xmlns:rdf="http://www.w3.org/1999/02/22-rdf-syntax-ns#" xmlns:svg="http://www.w3.org/2000/svg" xmlns="http://www.w3.org/2000/svg" xmlns:sodipodi="http://sodipodi.sourceforge.net/DTD/sodipodi-0.dtd" xmlns:inkscape="http://www.inkscape.org/namespaces/inkscape" version="1.1" width="268.2" height="30.8" inkscape:version="0.48.2 r9819"><defs/><metadata><rdf:RDF><cc:Work rdf:about=""><dc:format>image/svg+xml</dc:format><dc:type rdf:resource="http://purl.org/dc/dcmitype/StillImage"/><dc:title/></cc:Work></rdf:RDF></metadata><g transform="translate(130.55853,14.351712)"><g transform="translate(480.83203,-78.547454)"/><g transform="translate(483.01681,-78.547454)"/><g transform="translate(0,-62)"/><g transform="translate(-472,144)"><g transform="translate(-377.20868,-518.52769)" style="fill:#ffffff"><g style="font-size:40px;font-style:italic;font-variant:normal;font-weight:bold;font-stretch:normal;line-height:125%;letter-spacing:0px;word-spacing:0px;fill:#ffffff;fill-opacity:1;stroke:none;font-family:Garamond;-inkscape-font-specification:Garamond Bold Italic"><path d="m 844.8 365.6 c -0.1 -0.7 -0.3 -1.3 -0.6 -1.8 -0.2 -0.5 -0.6 -1 -1 -1.4 -0.8 -0.8 -1.9 -1.2 -3.2 -1.2 -1.5 0 -2.7 0.5 -3.6 1.6 -0.5 0.5 -0.8 1.1 -1.1 1.8 -0.2 0.7 -0.3 1.4 -0.3 2.2 l 0 3.1 -2.9 0 0 2.4 2.9 0 0 15.3 0 0 0 1.8 6.4 0 0 -2.4 -3.7 0 0 -14.7 3.7 0 0 -2.4 -3.7 0 0 -3.5 c -0 -1 0.2 -1.7 0.6 -2.1 0.4 -0.4 1 -0.6 1.6 -0.6 0.6 0 1.1 0.2 1.4 0.5 0.2 0.2 0.3 0.4 0.5 0.7 0.2 0.3 0.3 0.7 0.4 1.2 l 2.4 -0.4" style="font-style:normal;letter-spacing:1.9999969;fill:#ffffff;font-family:Nilland;-inkscape-font-specification:Nilland Bold"/><path d="m 863.1 379.7 c -0 -2.9 -0.9 -5.4 -2.8 -7.3 -1.8 -2 -4.2 -3 -7 -3 -2.8 0 -5.1 1 -7 3 -1.9 1.9 -2.8 4.4 -2.8 7.3 0 2.9 0.9 5.4 2.8 7.3 1.8 2 4.2 3 7 3 2.8 0 5.1 -1 7 -3 1.9 -1.9 2.8 -4.4 2.8 -7.3 m -2.8 0 c -0 2.3 -0.7 4.1 -2 5.6 -1.3 1.5 -3 2.2 -5 2.2 -2.1 0 -3.7 -0.7 -5 -2.2 -1.3 -1.5 -2 -3.3 -2 -5.6 0 -2.3 0.7 -4.1 2 -5.6 1.3 -1.5 3 -2.2 5 -2.2 2.1 0 3.7 0.7 5 2.2 1.3 1.5 2 3.3 2 5.6" style="font-style:normal;letter-spacing:1.9999969;fill:#ffffff;font-family:Nilland;-inkscape-font-specification:Nilland Bold"/><path d="m 886.6 389.4 0 -2.4 -3.3 0 0 -17.1 -2.7 0 0 2.1 0 12 c -0.5 0.4 -0.9 0.8 -1.4 1.2 -0.5 0.4 -1.1 0.7 -1.7 1 -1.3 0.6 -2.4 1 -3.5 1 -0.9 0 -1.6 -0.3 -2.1 -0.8 -0.5 -0.5 -0.7 -1.2 -0.7 -2.1 l 0 -14.4 -6 0 0 2.4 3.3 0 0 12.4 c 0 1.5 0.5 2.8 1.4 3.7 0.9 0.9 2.2 1.4 3.8 1.4 1.5 0 2.9 -0.3 4.2 -0.9 0.5 -0.2 1 -0.5 1.5 -0.8 0.5 -0.3 0.9 -0.6 1.4 -1 l 0 2.3 6 0" style="font-style:normal;letter-spacing:1.9999969;fill:#ffffff;font-family:Nilland;-inkscape-font-specification:Nilland Bold"/><path d="m 903.3 372 0 -2.6 -1.1 -0 c -0.4 -0 -0.9 -0 -1.4 0 -0.5 0.1 -1 0.1 -1.5 0.2 -0.5 0.1 -1 0.2 -1.5 0.4 -0.5 0.2 -0.9 0.3 -1.2 0.5 -0.4 0.2 -0.8 0.5 -1.2 0.9 -0.3 0.4 -0.6 0.7 -0.9 1.1 l 0 -2.6 -6.3 0 0 2.4 3.6 0 0 15 0 2.1 6.6 0 0 -2.4 -3.9 0 0 -8.2 c -0 -2.4 0.6 -4.1 1.8 -5.2 1.3 -1.1 3.2 -1.6 5.8 -1.6 l 1.1 0" style="font-style:normal;letter-spacing:1.9999969;fill:#ffffff;font-family:Nilland;-inkscape-font-specification:Nilland Bold"/><path d="m 916.8 389.4 0 -2.4 -2.6 0.4 c -0.5 0 -0.8 -0.1 -1 -0.4 -0.2 -0.3 -0.3 -0.7 -0.3 -1.4 l 0 -13.3 4 0 0 -2.4 -4 0 0 -4.3 -2.7 0 0 4.2 -3.4 0 0 2.4 3.4 0 0 13.7 c -0 0.6 0.1 1.2 0.2 1.6 0.2 0.5 0.4 0.9 0.7 1.2 0.6 0.7 1.6 1 2.8 1 l 2.9 -0.5" style="font-style:normal;letter-spacing:1.9999969;fill:#ffffff;font-family:Nilland;-inkscape-font-specification:Nilland Bold"/><path d="m 939.7 389.4 0 -2.4 -3 0 0 -12.4 c -0 -1.6 -0.5 -2.9 -1.5 -3.8 -1 -1 -2.3 -1.4 -3.9 -1.4 -1.4 0 -2.7 0.3 -4 0.9 -1.1 0.5 -2.1 1.1 -3 1.8 l 0 -10.4 -6.2 0 0 2.4 3.4 0 0 23.6 0.1 0 0 1.8 5.8 0 0 -2.4 -3.1 0 0 -12 c 0.5 -0.4 0.9 -0.8 1.5 -1.2 0.5 -0.4 1.1 -0.7 1.7 -1 1.3 -0.6 2.5 -0.9 3.5 -0.9 1 0 1.7 0.3 2.2 0.8 0.5 0.5 0.8 1.3 0.8 2.2 l 0 12.4 0 2.1 5.8 0" style="font-style:normal;letter-spacing:1.9999969;fill:#ffffff;font-family:Nilland;-inkscape-font-specification:Nilland Bold"/><path d="m 963.5 379.3 c -0 -2.9 -0.9 -5.3 -2.8 -7.2 -1.8 -1.9 -4.2 -2.8 -7 -2.8 -1.3 0 -2.7 0.3 -4.1 1 -1.1 0.6 -2.1 1.4 -3 2.6 l 0 -11.4 -6.2 0 0 2.4 3.4 0 0 23.2 0 2.1 2.7 0 0 -3.2 c 0.9 1.1 1.9 2 3 2.5 1.3 0.6 2.6 0.9 3.9 0.9 2.9 0 5.3 -1 7.2 -2.9 1.8 -1.9 2.8 -4.5 2.8 -7.5 m -2.8 0.1 c -0 2.3 -0.7 4.2 -2 5.8 -1.3 1.5 -3 2.2 -5.1 2.2 -2 0 -3.6 -0.7 -5 -2.1 -1.4 -1.4 -2 -3.3 -2 -5.8 -0 -2.2 0.7 -4.1 2.1 -5.6 1.4 -1.5 3.1 -2.2 5 -2.2 2 0 3.7 0.7 5 2.2 1.3 1.5 2 3.3 2 5.5" style="font-style:normal;letter-spacing:1.9999969;fill:#ffffff;font-family:Nilland;-inkscape-font-specification:Nilland Bold"/><path d="m 970.7 363.1 c -0 -0.5 -0.2 -0.9 -0.6 -1.4 -0.4 -0.4 -0.9 -0.6 -1.4 -0.6 -0.5 0 -0.9 0.2 -1.4 0.6 -0.4 0.4 -0.6 0.9 -0.6 1.4 -0 0.5 0.2 0.9 0.6 1.4 0.4 0.4 0.9 0.6 1.4 0.6 0.5 0 0.9 -0.2 1.4 -0.6 0.4 -0.4 0.6 -0.9 0.6 -1.4 m 3.2 26.3 0 -2.4 -3.2 0 0 -17.1 -6 0 0 2.4 3.3 0 0 15.3 0 0 0 1.8 5.9 0" style="font-style:normal;letter-spacing:1.9999969;fill:#ffffff;font-family:Nilland;-inkscape-font-specification:Nilland Bold"/><path d="m 985.9 389.4 0 -2.4 -2.6 0.4 c -0.5 0 -0.8 -0.1 -1 -0.4 -0.2 -0.3 -0.3 -0.7 -0.3 -1.4 l 0 -13.3 4 0 0 -2.4 -4 0 0 -4.3 -2.7 0 0 4.2 -3.4 0 0 2.4 3.4 0 0 13.7 c 0 0.6 0.1 1.2 0.2 1.6 0.2 0.5 0.4 0.9 0.7 1.2 0.6 0.7 1.6 1 2.8 1 l 2.9 -0.5" style="font-style:normal;letter-spacing:1.9999969;fill:#ffffff;font-family:Nilland;-inkscape-font-specification:Nilland Bold"/></g><path d="m 730.5 368.4 c -6 0 -10.8 4.8 -10.8 10.8 0 6 4.8 10.8 10.8 10.8 4.9 0 8.7 -3.1 10.3 -7.6 0.8 -2.2 6.6 -2.4 7.4 0 0.1 0.2 0.2 0.3 0.2 0.5 0.1 0.3 0.2 0.7 0.4 1 0.2 0.4 0.4 0.8 0.7 1.2 0 0 0.1 0.1 0.1 0.1 0.1 0.1 0.1 0.2 0.2 0.2 0.3 0.4 0.6 0.8 0.9 1.1 0.4 0.4 0.8 0.8 1.3 1.2 0.4 0.3 0.9 0.7 1.4 0.9 0 0 0 -0 0 0 0.5 0.3 1 0.5 1.5 0.7 0.1 0 0.2 0.1 0.2 0.1 0.1 0 0.1 0 0.2 0 0.4 0.1 0.9 0.2 1.4 0.3 0.2 0 0.5 0.1 0.7 0.1 0 0 0.1 -0 0.1 0 0.3 0 0.6 0 0.9 0 0.5 0 1 -0 1.5 -0.1 0.2 -0 0.4 -0.1 0.7 -0.1 0.4 -0.1 0.7 -0.2 1 -0.3 0.2 -0.1 0.5 -0.1 0.7 -0.2 0.3 -0.1 0.5 -0.2 0.8 -0.3 0.1 -0.1 0.2 -0.1 0.3 -0.1 0 -0 0.1 -0.1 0.1 -0.1 0.4 -0.2 0.9 -0.5 1.3 -0.8 0.1 -0.1 0.1 -0.1 0.2 -0.2 0.4 -0.3 0.7 -0.6 1 -0.9 0.8 -0.8 1.5 -1.7 2 -2.8 0.3 -0.5 0.5 -1.1 0.7 -1.6 0.8 -2.2 6.6 -2.4 7.4 0 0.2 0.7 0.5 1.3 0.8 1.9 0.2 0.3 0.4 0.6 0.6 0.9 0 0 0.1 0.1 0.1 0.1 1 1.4 2.2 2.6 3.7 3.4 0 0 0 -0 0 0 1.5 0.8 3.2 1.3 5.1 1.3 0 0 0 0 0 0 0.5 -0 1 -0 1.5 -0.1 0.2 -0 0.4 -0.1 0.7 -0.1 0.4 -0.1 0.7 -0.2 1 -0.3 0.3 -0.1 0.7 -0.2 1 -0.3 0.3 -0.1 0.5 -0.2 0.8 -0.4 0.4 -0.2 0.7 -0.4 1.1 -0.7 2 -1.4 3.6 -3.4 4.3 -5.8 0.8 -2.2 6.6 -2.4 7.4 0 1.3 4.2 5.5 7.6 10.3 7.6 6 0 10.9 -4.8 10.9 -10.8 0 -6 -4.9 -10.8 -10.9 -10.8 -4.9 0 -8.7 3 -10.3 7.6 -0.9 2.6 -6.4 2.6 -7.4 0 -0 -0 0 -0 0 -0 -0.8 -2.7 -2.7 -4.9 -5.2 -6.3 -0 -0 -0.1 -0.1 -0.1 -0.1 -0 -0 -0 0 -0 0 -0 -0 -0.1 -0 -0.1 -0 -1.5 -0.7 -3.2 -1.2 -4.9 -1.2 -0 0 -0 -0 -0 0 -1.1 0 -2.1 0.2 -3.1 0.5 -1.2 0.4 -2.4 1 -3.4 1.8 -1.2 0.9 -2.2 2.1 -2.9 3.4 -0.1 0.1 -0.1 0.2 -0.1 0.3 -0.3 0.5 -0.5 1.1 -0.7 1.6 -0 0 -0 0 -0 0 -0.9 2.5 -6.3 2.6 -7.3 0 -0 -0 -0 -0 -0 -0 -0 -0 0 -0 0 -0 -0.2 -0.6 -0.4 -1.1 -0.7 -1.6 -1 -2 -2.5 -3.6 -4.5 -4.7 -0.1 -0 -0.1 -0.1 -0.2 -0.1 -0.4 -0.2 -0.9 -0.4 -1.4 -0.6 -0 -0 -0.1 -0 -0.1 -0 -0.1 -0 -0.2 -0.1 -0.3 -0.1 -0.5 -0.1 -0.9 -0.2 -1.4 -0.3 -0.6 -0.1 -1.2 -0.1 -1.8 -0.1 -0.6 0 -1.2 0 -1.8 0.1 -0.4 0.1 -0.7 0.1 -1.1 0.2 -0.1 0 -0.2 0.1 -0.3 0.1 -0.4 0.1 -0.7 0.2 -1 0.4 -0.6 0.2 -1.1 0.5 -1.6 0.8 -0.2 0.1 -0.3 0.2 -0.5 0.3 -0 0 -0 0 -0 0 -0.5 0.3 -0.9 0.7 -1.3 1.1 -0.4 0.4 -0.7 0.9 -1.1 1.3 -0.3 0.5 -0.7 0.9 -0.9 1.5 -0.2 0.4 -0.4 0.9 -0.6 1.3 -0 0.1 -0.1 0.2 -0.1 0.3 -0 0 -0 0 -0 0 -0.9 2.6 -6.4 2.6 -7.4 0 -1.7 -4.5 -5.5 -7.6 -10.3 -7.6 z m -0.7 3.6 c 0.2 -0 0.5 0 0.7 0 4 0 7.3 3.2 7.3 7.3 0 4 -3.2 7.3 -7.3 7.3 -4 0 -7.3 -3.3 -7.3 -7.3 0 -3.8 2.8 -6.9 6.5 -7.3 z m 28.1 0 c 0.2 -0 0.5 0 0.7 0 0.3 0 0.5 -0 0.7 0 0.2 0 0.5 0.1 0.7 0.1 0 0 0 -0 0 0 0.5 0.1 0.9 0.2 1.3 0.4 0 0 0 -0 0 0 2.4 1 4.1 3.3 4.4 5.9 0 0.2 0 0.5 0 0.7 0 0.3 0 0.5 0 0.7 -0.2 2.2 -1.4 4.1 -3.2 5.3 -1 0.7 -2.1 1.1 -3.4 1.2 -0.2 0 -0.5 0 -0.7 0 -0.5 0 -1 -0 -1.5 -0.1 -0.5 -0.1 -0.9 -0.3 -1.3 -0.5 -0 -0 -0 0 -0 0 -0.4 -0.2 -0.8 -0.4 -1.2 -0.7 -0 -0 -0 0 -0 0 -0.4 -0.3 -0.7 -0.6 -1 -0.9 -0.7 -0.7 -1.2 -1.5 -1.6 -2.3 -0.2 -0.4 -0.3 -0.9 -0.4 -1.4 -0.1 -0.5 -0.1 -0.9 -0.1 -1.5 0 -0.5 0 -1 0.1 -1.5 0.1 -0.5 0.2 -0.9 0.4 -1.4 0.4 -0.9 0.9 -1.6 1.6 -2.3 1.1 -1.1 2.7 -1.9 4.4 -2.1 z m 28.1 0 c 0.2 -0 0.5 0 0.7 0 0 -0 0 0 0 0 0.2 0 0.5 -0 0.7 0 0 0 0 -0 0 0 3.2 0.3 5.7 2.7 6.4 5.8 0.1 0.5 0.1 1 0.1 1.5 0 1.5 -0.4 2.9 -1.2 4.1 -0.5 0.8 -1.2 1.4 -2 2 -0 0 -0 -0 -0 0 -1.2 0.8 -2.5 1.3 -4 1.3 -0.3 0 -0.5 -0 -0.8 -0 -0.2 -0 -0.4 -0 -0.7 -0.1 -0 -0 -0 0 -0 0 -0.5 -0.1 -0.9 -0.3 -1.3 -0.5 -0 -0 -0 0 -0 0 -0.4 -0.2 -0.8 -0.4 -1.2 -0.7 -1.9 -1.3 -3.2 -3.5 -3.2 -6 0 -3 1.8 -5.6 4.4 -6.7 0.7 -0.3 1.3 -0.5 2.1 -0.6 z" style="fill:#ffffff;fill-opacity:1;stroke:none" inkscape:connector-curvature="0"/></g></g></g></svg>