<?xml version="1.0" encoding="UTF-8" standalone="no"?>
<!-- Created with Inkscape (http://www.inkscape.org/) -->

<svg
   xmlns:dc="http://purl.org/dc/elements/1.1/"
   xmlns:cc="http://creativecommons.org/ns#"
   xmlns:rdf="http://www.w3.org/1999/02/22-rdf-syntax-ns#"
   xmlns:svg="http://www.w3.org/2000/svg"
   xmlns="http://www.w3.org/2000/svg"
   xmlns:sodipodi="http://sodipodi.sourceforge.net/DTD/sodipodi-0.dtd"
   xmlns:inkscape="http://www.inkscape.org/namespaces/inkscape"
   version="1.1"
   width="268.20227"
   height="30.799999"
   id="svg2"
   inkscape:version="0.48.2 r9819"
   sodipodi:docname="logo.svg">
  <sodipodi:namedview
     pagecolor="#ffffff"
     bordercolor="#666666"
     borderopacity="1"
     objecttolerance="10"
     gridtolerance="10"
     guidetolerance="10"
     inkscape:pageopacity="0"
     inkscape:pageshadow="2"
     inkscape:window-width="823"
     inkscape:window-height="634"
     id="namedview3221"
     showgrid="false"
     inkscape:zoom="1"
     inkscape:cx="134.60939"
     inkscape:cy="71.223408"
     inkscape:window-x="0"
     inkscape:window-y="22"
     inkscape:window-maximized="0"
     inkscape:current-layer="g3012"
     fit-margin-top="1"
     fit-margin-right="1"
     fit-margin-left="1"
     fit-margin-bottom="1" />
  <defs
     id="defs4" />
  <metadata
     id="metadata7">
    <rdf:RDF>
      <cc:Work
         rdf:about="">
        <dc:format>image/svg+xml</dc:format>
        <dc:type
           rdf:resource="http://purl.org/dc/dcmitype/StillImage" />
        <dc:title />
      </cc:Work>
    </rdf:RDF>
  </metadata>
  <g
     id="layer1"
     transform="translate(130.55853,14.351712)">
    <g
       transform="translate(480.83203,-78.547454)"
       id="g4316" />
    <g
       transform="translate(483.01681,-78.547454)"
       id="g4322" />
    <g
       transform="translate(0,-62)"
       id="g4328" />
    <g
       transform="translate(-472,144)"
       id="g3169">
      <g
         transform="translate(-377.20868,-518.52769)"
         id="g3012"
         style="fill:#ffffff">
        <g
           style="font-size:40px;font-style:italic;font-variant:normal;font-weight:bold;font-stretch:normal;line-height:125%;letter-spacing:0px;word-spacing:0px;fill:#ffffff;fill-opacity:1;stroke:none;font-family:Garamond;-inkscape-font-specification:Garamond Bold Italic"
           id="text3015">
          <path
             d="m 844.77683,365.57598 c -0.10668,-0.69331 -0.29335,-1.27998 -0.56,-1.76 -0.24002,-0.50664 -0.56002,-0.97331 -0.96,-1.4 -0.82668,-0.82664 -1.90668,-1.23997 -3.24,-1.24 -1.49334,3e-5 -2.69334,0.52003 -3.6,1.56 -0.48001,0.50669 -0.84001,1.10669 -1.08,1.8 -0.21334,0.66669 -0.32001,1.41335 -0.32,2.24 l 0,3.08 -2.92,0 0,2.44 2.92,0 0,15.32 0.04,0 0,1.8 6.4,0 0,-2.44 -3.72,0 0,-14.68 3.72,0 0,-2.44 -3.72,0 0,-3.48 c -1e-5,-0.95998 0.19999,-1.66664 0.6,-2.12 0.42666,-0.42664 0.97332,-0.63998 1.64,-0.64 0.63999,2e-5 1.11999,0.16002 1.44,0.48 0.18665,0.18669 0.34665,0.41336 0.48,0.68 0.15999,0.26669 0.30665,0.65335 0.44,1.16 l 2.44,-0.36"
             style="font-style:normal;letter-spacing:1.9999969;fill:#ffffff;font-family:Nilland;-inkscape-font-specification:Nilland Bold"
             id="path3243" />
          <path
             d="m 863.08682,379.65598 c -2e-5,-2.93332 -0.93335,-5.37332 -2.8,-7.32 -1.84001,-1.99998 -4.16001,-2.99998 -6.96,-3 -2.8,2e-5 -5.12,1.00002 -6.96,3 -1.86667,1.94668 -2.8,4.38668 -2.8,7.32 0,2.93334 0.93333,5.37334 2.8,7.32 1.84,2 4.16,3 6.96,3 2.79999,0 5.11999,-1 6.96,-3 1.86665,-1.94666 2.79998,-4.38666 2.8,-7.32 m -2.76,0 c -10e-6,2.26667 -0.65335,4.13334 -1.96,5.6 -1.30668,1.46667 -2.98668,2.2 -5.04,2.2 -2.05334,0 -3.73334,-0.73333 -5.04,-2.2 -1.30667,-1.46666 -1.96,-3.33333 -1.96,-5.6 0,-2.26666 0.65333,-4.13332 1.96,-5.6 1.30666,-1.46665 2.98666,-2.19998 5.04,-2.2 2.05332,2e-5 3.73332,0.73335 5.04,2.2 1.30665,1.46668 1.95999,3.33334 1.96,5.6"
             style="font-style:normal;letter-spacing:1.9999969;fill:#ffffff;font-family:Nilland;-inkscape-font-specification:Nilland Bold"
             id="path3245" />
          <path
             d="m 886.62994,389.41598 0,-2.44 -3.28,0 0,-17.12 -2.72,0 0,2.12 0,12 c -0.45335,0.42667 -0.93334,0.82667 -1.44,1.2 -0.50668,0.37333 -1.06668,0.72 -1.68,1.04 -1.25334,0.64 -2.42667,0.96 -3.52,0.96 -0.88,0 -1.57334,-0.25333 -2.08,-0.76 -0.48,-0.48 -0.72,-1.18667 -0.72,-2.12 l 0,-14.44 -6.04,0 0,2.44 3.32,0 0,12.36 c 0,1.54667 0.46667,2.77333 1.4,3.68 0.90666,0.90666 2.16,1.36 3.76,1.36 1.49333,0 2.87999,-0.29334 4.16,-0.88 0.53332,-0.24 1.02666,-0.49333 1.48,-0.76 0.47999,-0.29333 0.93332,-0.61333 1.36,-0.96 l 0,2.32 6,0"
             style="font-style:normal;letter-spacing:1.9999969;fill:#ffffff;font-family:Nilland;-inkscape-font-specification:Nilland Bold"
             id="path3247" />
          <path
             d="m 903.29307,371.97598 0,-2.64 -1.08,-0.04 c -0.42668,-0.0266 -0.89335,-0.0133 -1.4,0.04 -0.50668,0.0533 -1.01335,0.13335 -1.52,0.24 -0.50668,0.08 -1.00001,0.20002 -1.48,0.36 -0.45334,0.16002 -0.86668,0.33335 -1.24,0.52 -0.42668,0.24002 -0.81334,0.54668 -1.16,0.92 -0.34668,0.37335 -0.64001,0.73335 -0.88,1.08 l 0,-2.6 -6.32,0 0,2.44 3.6,0 0,15 0,2.12 6.6,0 0,-2.44 -3.88,0 0,-8.16 c -10e-6,-2.37332 0.61332,-4.10665 1.84,-5.2 1.25332,-1.09332 3.19999,-1.63999 5.84,-1.64 l 1.08,0"
             style="font-style:normal;letter-spacing:1.9999969;fill:#ffffff;font-family:Nilland;-inkscape-font-specification:Nilland Bold"
             id="path3249" />
          <path
             d="m 916.75869,389.37598 0,-2.44 -2.6,0.4 c -0.45334,0 -0.80001,-0.12 -1.04,-0.36 -0.21334,-0.26667 -0.32001,-0.73333 -0.32,-1.4 l 0,-13.28 3.96,0 0,-2.44 -3.96,0 0,-4.28 -2.72,0.04 0,4.24 -3.36,0 0,2.44 3.36,0 0,13.68 c -1e-5,0.61333 0.0667,1.16 0.2,1.64 0.15999,0.48 0.39999,0.89333 0.72,1.24 0.63999,0.66666 1.58666,1 2.84,1 l 2.92,-0.48"
             style="font-style:normal;letter-spacing:1.9999969;fill:#ffffff;font-family:Nilland;-inkscape-font-specification:Nilland Bold"
             id="path3251" />
          <path
             d="m 939.66306,389.41598 0,-2.44 -3.04,0 0,-12.36 c -2e-5,-1.59999 -0.49335,-2.87998 -1.48,-3.84 -1.01335,-0.95998 -2.32001,-1.43998 -3.92,-1.44 -1.38668,2e-5 -2.70668,0.29335 -3.96,0.88 -1.12001,0.50668 -2.12001,1.12002 -3,1.84 l 0,-10.44 -6.16,0 0,2.44 3.44,0 0,23.56 0.08,0 0,1.8 5.76,0 0,-2.44 -3.12,0 0,-12.04 c 0.45333,-0.42665 0.94666,-0.81332 1.48,-1.16 0.53333,-0.37332 1.10666,-0.70665 1.72,-1 1.30666,-0.61332 2.46666,-0.91998 3.48,-0.92 0.95999,2e-5 1.69332,0.25335 2.2,0.76 0.50665,0.50668 0.75998,1.25335 0.76,2.24 l 0,12.44 0,2.12 5.76,0"
             style="font-style:normal;letter-spacing:1.9999969;fill:#ffffff;font-family:Nilland;-inkscape-font-specification:Nilland Bold"
             id="path3253" />
          <path
             d="m 963.45556,379.29598 c -2e-5,-2.87999 -0.92002,-5.26665 -2.76,-7.16 -1.84002,-1.86665 -4.18668,-2.79998 -7.04,-2.8 -1.33334,2e-5 -2.69334,0.34668 -4.08,1.04 -1.14667,0.56002 -2.13334,1.44002 -2.96,2.64 l 0,-11.4 -6.16,0 0,2.44 3.44,0 0,23.24 0,2.12 2.72,0 0,-3.16 c 0.90666,1.14667 1.89333,1.98667 2.96,2.52 1.27999,0.61333 2.57332,0.92 3.88,0.92 2.93332,0 5.34665,-0.96 7.24,-2.88 1.83998,-1.94666 2.75998,-4.45333 2.76,-7.52 m -2.76,0.08 c -2e-5,2.32001 -0.65335,4.24 -1.96,5.76 -1.30668,1.46667 -3.01335,2.2 -5.12,2.2 -1.97334,0 -3.64001,-0.70667 -5,-2.12 -1.36001,-1.38666 -2.04001,-3.30666 -2.04,-5.76 -10e-6,-2.23999 0.69333,-4.09332 2.08,-5.56 1.38666,-1.46665 3.06666,-2.19998 5.04,-2.2 2.02665,2e-5 3.70665,0.72001 5.04,2.16 1.30665,1.46668 1.95998,3.30668 1.96,5.52"
             style="font-style:normal;letter-spacing:1.9999969;fill:#ffffff;font-family:Nilland;-inkscape-font-specification:Nilland Bold"
             id="path3255" />
          <path
             d="m 970.69244,363.09598 c -1e-5,-0.47998 -0.18668,-0.93331 -0.56,-1.36 -0.42668,-0.37331 -0.88001,-0.55997 -1.36,-0.56 -0.48001,3e-5 -0.93334,0.18669 -1.36,0.56 -0.37334,0.42669 -0.56001,0.89336 -0.56,1.4 -10e-6,0.48002 0.18666,0.93336 0.56,1.36 0.42666,0.37336 0.87999,0.56002 1.36,0.56 0.47999,2e-5 0.93332,-0.18664 1.36,-0.56 0.37332,-0.42664 0.55999,-0.89331 0.56,-1.4 m 3.24,26.32 0,-2.44 -3.24,0 0,-17.12 -6.04,0 0,2.44 3.32,0 0,15.32 0.04,0 0,1.8 5.92,0"
             style="font-style:normal;letter-spacing:1.9999969;fill:#ffffff;font-family:Nilland;-inkscape-font-specification:Nilland Bold"
             id="path3257" />
          <path
             d="m 985.85242,389.37598 0,-2.44 -2.6,0.4 c -0.45334,0 -0.80001,-0.12 -1.04,-0.36 -0.21334,-0.26667 -0.32001,-0.73333 -0.32,-1.4 l 0,-13.28 3.96,0 0,-2.44 -3.96,0 0,-4.28 -2.72,0.04 0,4.24 -3.36,0 0,2.44 3.36,0 0,13.68 c 0,0.61333 0.0667,1.16 0.2,1.64 0.16,0.48 0.4,0.89333 0.72,1.24 0.64,0.66666 1.58666,1 2.84,1 l 2.92,-0.48"
             style="font-style:normal;letter-spacing:1.9999969;fill:#ffffff;font-family:Nilland;-inkscape-font-specification:Nilland Bold"
             id="path3259" />
        </g>
        <path
           d="m 730.4604,368.35539 c -5.97113,0 -10.81025,4.83914 -10.81025,10.81026 0,5.97113 4.83912,10.81025 10.81025,10.81025 4.86766,0 8.71075,-3.06805 10.34227,-7.62801 0.77916,-2.17764 6.64321,-2.42019 7.39403,0 0.0564,0.18205 0.16665,0.33564 0.23399,0.51477 0.12071,0.32888 0.22358,0.66976 0.37438,0.98275 0.20334,0.42208 0.44756,0.82734 0.70196,1.21675 0.0304,0.0466 0.0624,0.0943 0.0936,0.14031 0.0581,0.0831 0.1267,0.15233 0.1872,0.23399 0.28694,0.40041 0.59825,0.76616 0.93595,1.12314 0.39889,0.42168 0.80171,0.81677 1.26353,1.16994 0.4437,0.33931 0.90991,0.66761 1.40394,0.93596 0.012,0.006 0.0353,-0.006 0.0468,0 0.47566,0.25598 0.98243,0.47171 1.49752,0.65516 0.0791,0.0291 0.15395,0.0666 0.23398,0.0936 0.0599,0.0197 0.12684,0.028 0.18719,0.0468 0.441,0.13717 0.8939,0.24739 1.35714,0.32758 0.24792,0.043 0.49534,0.11472 0.74876,0.14032 0.0458,0.005 0.0945,-0.005 0.14031,0 0.31732,0.028 0.61136,0.0468 0.93595,0.0468 0.51768,0 0.99864,-0.0233 1.49753,-0.0937 0.22106,-0.03 0.43946,-0.0975 0.65516,-0.14031 0.35254,-0.072 0.69014,-0.17552 1.02955,-0.28079 0.23739,-0.0726 0.47257,-0.14541 0.70197,-0.23399 0.26849,-0.10347 0.53775,-0.20385 0.79555,-0.32758 0.10753,-0.0516 0.22205,-0.0853 0.32759,-0.14031 0.0499,-0.0264 0.0909,-0.0666 0.14032,-0.0936 0.43801,-0.23694 0.8642,-0.50295 1.26353,-0.79558 0.0709,-0.0534 0.11771,-0.13192 0.18719,-0.18718 0.37373,-0.28791 0.69661,-0.60289 1.02955,-0.93595 0.81083,-0.81114 1.49075,-1.72827 2.0123,-2.76106 0.26183,-0.51848 0.52574,-1.07597 0.70198,-1.63792 0.77913,-2.17764 6.64318,-2.42018 7.39401,0 0.20731,0.66817 0.49555,1.29815 0.84236,1.9187 0.17455,0.32587 0.35566,0.63115 0.56158,0.93596 0.0242,0.0347 0.069,0.0591 0.0936,0.0937 0.96346,1.39045 2.24976,2.55789 3.74381,3.36943 0.0119,0.006 0.0353,-0.006 0.0467,0 1.52305,0.81962 3.2499,1.31032 5.10095,1.31032 0.0159,0 0.0308,6e-5 0.0468,0 0.48569,-0.005 0.98175,-0.0275 1.45073,-0.0936 0.22104,-0.03 0.43946,-0.0975 0.65516,-0.14031 0.35253,-0.072 0.69013,-0.17552 1.02956,-0.28078 0.33902,-0.10365 0.66016,-0.19156 0.98273,-0.32761 0.26206,-0.11052 0.54435,-0.24444 0.79557,-0.37437 0.37264,-0.19707 0.7311,-0.41497 1.07634,-0.65517 2.02245,-1.35977 3.56223,-3.38647 4.30538,-5.7561 0.77915,-2.17765 6.6432,-2.42018 7.39403,0 1.29267,4.16666 5.47461,7.62801 10.34228,7.62801 5.97111,0 10.85704,-4.83912 10.85704,-10.81025 0,-5.97113 -4.88593,-10.81025 -10.85704,-10.81025 -4.86767,0 -8.65213,3.01838 -10.34228,7.62801 -0.94185,2.56874 -6.42099,2.57812 -7.39403,0 -0.005,-0.0134 0.005,-0.0337 0,-0.0468 -0.84931,-2.70815 -2.73369,-4.93967 -5.19454,-6.27087 -0.0492,-0.0277 -0.0909,-0.0667 -0.14032,-0.0936 -0.012,-0.006 -0.0347,0.006 -0.0467,0 -0.0304,-0.0164 -0.0629,-0.0307 -0.0936,-0.0468 -1.4731,-0.74459 -3.15538,-1.16994 -4.91375,-1.16994 -0.0159,0 -0.0308,-5e-5 -0.0468,0 -1.08638,0.009 -2.14803,0.16093 -3.13544,0.46798 -1.24003,0.38125 -2.37169,0.98621 -3.36942,1.77831 -1.18419,0.91698 -2.18185,2.09139 -2.90146,3.41624 -0.0526,0.0943 -0.0899,0.18452 -0.14032,0.28078 -0.26807,0.52978 -0.523,1.06242 -0.70196,1.63791 -0.008,0.0192 -0.0397,0.0275 -0.0468,0.0467 -0.93407,2.54755 -6.30904,2.56128 -7.34722,0.0468 -0.009,-0.021 -0.0389,-0.0255 -0.0467,-0.0468 -0.005,-0.0134 0.005,-0.0334 0,-0.0467 -0.17624,-0.56194 -0.44014,-1.07265 -0.70197,-1.59112 -1,-1.98018 -2.54235,-3.62477 -4.49257,-4.67976 -0.0606,-0.0343 -0.12595,-0.0606 -0.18718,-0.0937 -0.44649,-0.23048 -0.92441,-0.44051 -1.40393,-0.60837 -0.0317,-0.0104 -0.0617,-0.036 -0.0937,-0.0468 -0.0907,-0.0311 -0.18902,-0.065 -0.28078,-0.0937 -0.4574,-0.14181 -0.92332,-0.24673 -1.40393,-0.32758 -0.58934,-0.0991 -1.16163,-0.14032 -1.77832,-0.14032 -0.61667,0 -1.18987,0.0412 -1.7783,0.14032 -0.36621,0.0617 -0.72364,0.13642 -1.07635,0.23399 -0.10946,0.0302 -0.21952,0.06 -0.32759,0.0936 -0.35179,0.10678 -0.69576,0.2327 -1.02954,0.37438 -0.56165,0.2384 -1.0846,0.51082 -1.59112,0.84236 -0.17274,0.11036 -0.34892,0.20786 -0.51477,0.32758 -0.0177,0.0134 -0.0293,0.0335 -0.0468,0.0468 -0.46043,0.33663 -0.8624,0.71948 -1.26354,1.12314 -0.3939,0.3964 -0.74731,0.857 -1.07634,1.31032 -0.33612,0.46314 -0.6756,0.93625 -0.93594,1.45074 -0.21629,0.42739 -0.40276,0.85264 -0.56158,1.31033 -0.038,0.10963 -0.059,0.21636 -0.0936,0.32758 -0.008,0.0194 -0.0397,0.0276 -0.0467,0.0467 -0.94184,2.56875 -6.42099,2.57813 -7.39402,0 -1.68682,-4.4693 -5.47461,-7.62801 -10.34228,-7.62801 z m -0.74876,3.55663 c 0.24413,-0.0247 0.49802,0 0.74876,0 4.01192,0 7.25363,3.2417 7.25363,7.25363 0,4.01193 -3.24171,7.30042 -7.25363,7.30042 -4.01193,0 -7.25364,-3.28849 -7.25364,-7.30042 0,-3.76118 2.84301,-6.8828 6.50488,-7.25363 z m 28.07858,0 c 0.24412,-0.0247 0.49802,0 0.74875,0 0.25075,0 0.50464,-0.0247 0.74877,0 0.22931,0.0246 0.47933,0.0951 0.70196,0.14032 0.0149,0.003 0.0326,-0.003 0.0468,0 0.45798,0.0963 0.88781,0.24363 1.31033,0.42117 0.0134,0.006 0.0332,-0.006 0.0468,0 2.37972,1.01586 4.12471,3.27217 4.39897,5.94329 0.0247,0.24414 0,0.49803 0,0.74877 0,0.25074 0.0247,0.5043 0,0.74877 -0.2225,2.20021 -1.44596,4.10369 -3.18223,5.28813 -0.97146,0.65802 -2.1471,1.09142 -3.36943,1.21674 -0.22935,0.0221 -0.46683,0.0468 -0.70198,0.0468 -0.51695,0 -1.01143,-0.0367 -1.49752,-0.14032 -0.45803,-0.0948 -0.88837,-0.29066 -1.31033,-0.46797 -0.0134,-0.006 -0.0338,0.006 -0.0468,0 -0.42112,-0.17996 -0.79409,-0.40192 -1.16994,-0.65517 -0.0104,-0.008 -0.0368,0.008 -0.0468,0 -0.37587,-0.25641 -0.70847,-0.56838 -1.02955,-0.88915 -0.65597,-0.66181 -1.22453,-1.46741 -1.59113,-2.33988 -0.18329,-0.43625 -0.3247,-0.88326 -0.42117,-1.35713 -0.0963,-0.47388 -0.14031,-0.94924 -0.14031,-1.45073 0,-0.50149 0.0439,-1.02494 0.14031,-1.49752 0.0964,-0.4726 0.23788,-0.9231 0.42117,-1.35714 0.3666,-0.86808 0.93516,-1.63713 1.59113,-2.29308 1.14506,-1.13381 2.65591,-1.93412 4.35218,-2.10589 z m 28.07857,0 c 0.24413,-0.0247 0.49803,0 0.74877,0 0.0156,-10e-5 0.0311,0 0.0468,0 0.23472,9.9e-4 0.47277,-0.0233 0.70195,0 0.0153,9.9e-4 0.0316,-0.002 0.0468,0 3.1579,0.33871 5.73203,2.6985 6.36448,5.75611 0.0963,0.47258 0.14032,0.99603 0.14032,1.49752 0,1.50447 -0.43534,2.90564 -1.21674,4.07139 -0.5196,0.76712 -1.20107,1.44219 -1.9655,1.96551 -0.0119,0.008 -0.0355,-0.008 -0.0467,0 -1.15364,0.78141 -2.53784,1.25405 -4.02459,1.26352 -0.26718,0 -0.53596,-0.0185 -0.79557,-0.0468 -0.22813,-0.0234 -0.43382,-0.0495 -0.65517,-0.0937 -0.0149,-0.003 -0.0324,0.003 -0.0467,0 -0.45803,-0.0948 -0.88836,-0.29066 -1.31034,-0.46797 -0.012,-0.006 -0.0341,0.006 -0.0467,0 -0.43404,-0.18551 -0.83089,-0.39197 -1.21673,-0.65518 -1.92919,-1.31603 -3.18224,-3.52943 -3.18224,-6.03689 0,-2.9943 1.81496,-5.58335 4.39897,-6.69206 0.65108,-0.27495 1.32672,-0.48739 2.0591,-0.56156 z"
           id="path3019"
           style="fill:#ffffff;fill-opacity:1;stroke:none"
           inkscape:connector-curvature="0" />
      </g>
    </g>
  </g>
</svg>
