<?xml version="1.0" encoding="UTF-8" standalone="no"?>
<!-- Created with Inkscape (http://www.inkscape.org/) -->

<svg
   xmlns:dc="http://purl.org/dc/elements/1.1/"
   xmlns:cc="http://creativecommons.org/ns#"
   xmlns:rdf="http://www.w3.org/1999/02/22-rdf-syntax-ns#"
   xmlns:svg="http://www.w3.org/2000/svg"
   xmlns="http://www.w3.org/2000/svg"
   version="1.1"
   width="63.276707"
   height="25.166523"
   id="svg2">
  <defs
     id="defs4">
    <clipPath
       id="clipPath9562">
      <path
         d="m 0,0 9368.64,0 0,14669 L 0,14669 0,0 z"
         id="path9564" />
    </clipPath>
  </defs>
  <metadata
     id="metadata7">
    <rdf:RDF>
      <cc:Work
         rdf:about="">
        <dc:format>image/svg+xml</dc:format>
        <dc:type
           rdf:resource="http://purl.org/dc/dcmitype/StillImage" />
        <dc:title></dc:title>
      </cc:Work>
    </rdf:RDF>
  </metadata>
  <g
     transform="translate(-342.40666,-489.13118)"
     id="layer1">
    <g
       transform="matrix(1.25,0,0,-1.25,-1491.0659,1012.736)"
       id="g4731" />
    <g
       transform="matrix(1.25,0,0,-1.25,-1491.0659,1012.736)"
       id="g4735" />
    <g
       transform="matrix(0.35506262,0,0,0.35506262,425.16383,320.11659)"
       id="g8916"
       style="fill:#ffffff;fill-opacity:1">
      <path
         d="m -184.68878,500.03993 1.3475,-0.0912 1.43875,0 1.4375,0.0912 1.3475,0.17875 1.44,0.36 1.4375,0.26875 1.34875,0.45 1.3475,0.44875 1.3475,0.54 1.26,0.53875 1.2575,0.54 1.25875,0.62875 1.1675,0.62875 1.08,0.53875 0.98875,0.63 0.98875,0.54 1.25875,0.8075 1.34875,1.08 1.25625,1.16625 1.25875,1.43875 1.16875,1.43875 0.89875,1.70625 0.72,1.7075 0.44875,1.7975 0.09,1.34875 -0.27,1.4375 -0.45,1.34875 -0.8075,1.2575 -1.08,1.07875 -1.4375,0.80875 -1.79625,0.45 -2.24875,0.09 -1.3475,-0.27 -1.17,-0.54 -0.89875,-0.80875 -0.8075,-1.0775 -0.63,-1.25875 -0.54,-1.5275 -0.35875,-1.7075 -0.35875,-1.8875 -0.18,-1.07875 -0.18,-1.0775 -0.27,-1.17 -0.35875,-1.1675 -0.45,-1.2575 -0.53875,-1.25875 -0.63,-1.16875 -0.71875,-1.2575 -0.9,-1.16875 -0.98875,-1.07875 -1.16625,-0.98875 -1.26,-0.98875 -1.52875,-0.80875 -1.6175,-0.7175 -1.8875,-0.54 -2.06625,-0.44875 0,0"
         id="path8908"
         style="fill:#ffffff;fill-opacity:1;fill-rule:evenodd;stroke:none" />
      <path
         d="m -103.25253,500.03993 -1.35,-0.0912 -1.4375,0 -1.4375,0.0912 -1.34875,0.17875 -1.43875,0.36 -1.3475,0.26875 -1.4375,0.45 -1.34875,0.44875 -1.25875,0.54 -1.3475,0.53875 -1.16875,0.54 -1.25875,0.62875 -1.16875,0.62875 -1.07875,0.53875 -0.98875,0.63 -0.98875,0.54 -1.25875,0.8075 -1.34875,1.08 -1.3475,1.16625 -1.25875,1.43875 -1.07875,1.43875 -0.9875,1.70625 -0.72,1.7075 -0.35875,1.7975 -0.09,1.34875 0.26875,1.4375 0.45,1.34875 0.80875,1.2575 1.08,1.07875 1.4375,0.80875 1.79625,0.45 2.15875,0.09 1.3475,-0.27 1.16875,-0.54 0.98875,-0.80875 0.80875,-1.0775 0.63,-1.25875 0.53875,-1.5275 0.36,-1.7075 0.35875,-1.8875 0.18,-1.07875 0.18,-1.0775 0.27,-1.17 0.35875,-1.1675 0.45,-1.2575 0.45,-1.25875 0.62875,-1.16875 0.80875,-1.2575 0.80875,-1.16875 0.99,-1.07875 1.1675,-0.98875 1.3475,-0.98875 1.43875,-0.80875 1.70875,-0.7175 1.79625,-0.54 2.06875,-0.44875 0,0"
         id="path8910"
         style="fill:#ffffff;fill-opacity:1;fill-rule:evenodd;stroke:none" />
      <path
         d="m -174.62253,539.94243 0.98875,0.53875 0.98875,0.54 1.07875,0.44875 0.98875,0.45 1.07875,0.44875 1.07875,0.35875 1.0775,0.36 1.17,0.27 1.07875,0.27 1.1675,0.17875 1.07875,0.18 1.16875,0.09 1.16875,0 1.1675,-0.09 1.17,-0.18 1.1675,-0.17875 1.61875,-0.45 1.7075,-0.53875 1.6175,-0.71875 1.70875,-0.89875 1.6175,-1.07875 1.6175,-1.25875 1.61875,-1.5275 1.6175,-1.7075 1.4375,1.6175 1.52875,1.4375 1.5275,1.16875 1.52875,1.07875 1.5275,0.89875 1.5275,0.80875 1.52875,0.53875 1.52875,0.44875 1.5275,0.36 1.5275,0.18 1.4375,0.09 1.52875,0 1.52875,-0.18 1.4375,-0.26875 1.4375,-0.27 1.43875,-0.44875 1.43875,-0.45 1.3475,-0.63 1.34875,-0.62875 1.25875,-0.63 1.3475,-0.71875 1.16875,-0.71875 1.25875,-0.8075 1.07875,-0.81 1.16875,-0.8075 0.98875,-0.81 0.98875,-0.80875 0.98875,-0.89875 0.8975,-0.8075 0.81,-0.72 0.71875,-0.80875 0.71875,-0.71875 1.34875,-1.3475 1.258746,-1.16875 1.2575,-1.07875 1.17,-0.98875 1.1675,-0.80875 1.16875,-0.80875 1.1675,-0.71875 1.17,-0.62875 1.1675,-0.54 1.25875,-0.54 1.16875,-0.44875 1.1675,-0.44875 1.25875,-0.45 1.25875,-0.35875 1.3475,-0.36 1.34875,-0.35875 1.43875,-0.27 1.5275,0 1.70875,0.0888 1.7075,0.36 1.7975,0.45 1.7975,0.62875 1.7975,0.71875 1.79875,0.89875 1.79625,0.98875 1.7075,0.98875 1.61875,1.1675 1.52875,1.16875 1.4375,1.1675 1.25875,1.25875 1.16875,1.25875 0.89875,1.25875 -0.54,-1.4375 -0.62875,-1.43875 -0.71875,-1.4375 -0.89875,-1.34875 -0.98875,-1.2575 -1.07875,-1.16875 -1.07875,-1.16875 -1.07875,-1.07875 -1.1675,-0.98875 -1.08,-0.98875 -1.07875,-0.8075 -0.98875,-0.71875 -0.89875,-0.63 -0.8975,-0.53875 -0.72,-0.44875 -0.53875,-0.27 -0.63,-0.27 -0.98875,-0.44875 -1.3475,-0.45 -1.52875,-0.53875 -1.7975,-0.54 -1.9775,-0.35875 -2.24625,-0.36 -2.4275,-0.18 -2.69625,0.09 -2.6975,0.26875 -2.965,0.54 -2.96625,0.98875 -3.1475,1.25875 -3.144996,1.79625 -3.23625,2.1575 -3.235,2.78625 -3.23625,2.69625 -3.14625,1.8875 -2.96625,1.3475 -2.8775,0.71875 -2.69625,0.18 -2.60625,-0.26875 -2.42625,-0.72 -2.3375,-0.98875 -2.1575,-1.25875 -1.9775,-1.52625 -1.7975,-1.7075 -1.70875,-1.79875 -1.4375,-1.79625 -1.3475,-1.79875 -1.17,-1.70625 -0.8975,-1.61875 -0.98875,1.61875 -1.07875,1.70625 -1.34875,1.79875 -1.52625,1.79625 -1.71,1.79875 -1.79625,1.7075 -1.9775,1.52625 -2.15875,1.25875 -2.33625,0.98875 -2.5175,0.72 -2.60625,0.26875 -2.69625,-0.18 -2.87625,-0.71875 -2.96625,-1.3475 -3.14625,-1.8875 -3.235,-2.69625 -3.2375,-2.78625 -3.235,-2.1575 -3.14625,-1.79625 -3.145,-1.25875 -2.96625,-0.98875 -2.87625,-0.54 -2.7875,-0.26875 -2.60625,-0.09 -2.4275,0.18 -2.24625,0.36 -2.06875,0.35875 -1.79625,0.54 -1.52875,0.53875 -1.2575,0.45 -0.98875,0.44875 -0.72,0.27 -0.54,0.27 -0.7175,0.44875 -0.9,0.53875 -0.89875,0.63 -0.9875,0.71875 -1.08,0.8075 -1.0775,0.98875 -1.16875,0.98875 -1.08,1.07875 -1.0775,1.16875 -1.0775,1.16875 -0.98875,1.2575 -0.9,1.34875 -0.71875,1.4375 -0.63,1.43875 -0.53875,1.4375 0.89875,-1.25875 1.1675,-1.25875 1.26,-1.25875 1.43875,-1.1675 1.52625,-1.16875 1.6175,-1.1675 1.70875,-0.98875 1.7975,-0.98875 1.7975,-0.89875 1.79875,-0.71875 1.79625,-0.62875 1.79875,-0.45 1.7075,-0.36 1.7075,-0.0888 1.52875,0 1.4375,0.27 1.34875,0.35875 1.34875,0.36 1.2575,0.35875 1.25875,0.45 1.16875,0.44875 1.1675,0.44875 1.25875,0.54 1.16875,0.54 1.16875,0.62875 1.16875,0.71875 1.1675,0.80875 1.17,0.80875 1.1675,0.98875 1.25875,1.07875 1.2575,1.16875 1.34875,1.3475 0.98875,0.98875 1.07875,1.0775 1.26,1.17 1.3475,1.1675 1.4375,1.0775 1.52875,1.16875 1.61875,1.07875 1.70625,1.07875 0,0"
         id="path8912"
         style="fill:#ffffff;fill-opacity:1;fill-rule:evenodd;stroke:none" />
      <path
         d="m -143.88128,509.92493 3.32625,-0.35875 2.60625,-1.08 1.9775,-1.61625 1.5275,-1.9775 0.98875,-2.3375 0.62875,-2.60625 0.45,-2.60625 0.27,-2.515 0.18,-2.33625 0.18,-2.15875 0.26875,-1.97625 0.36,-1.7075 0.44875,-1.43875 0.54,-1.25625 0.63,-0.98875 0.8975,-0.72125 -1.9775,-0.0888 -1.7975,0.27 -1.7075,0.7175 -1.5275,0.9 -1.25875,1.1675 -1.07875,1.2575 -0.81,1.26 -0.44875,1.3475 -0.0888,-2.42625 -0.45125,-2.06875 -0.71875,-1.70625 -0.89875,-1.3475 -0.8975,-1.07875 -0.81,-0.80875 -0.54,-0.53875 -0.26875,-0.27 -0.26875,0.27 -0.63,0.53875 -0.81,0.80875 -0.8975,1.07875 -0.89875,1.3475 -0.72,1.70625 -0.45,2.06875 -0.09,2.42625 -0.44875,-1.3475 -0.80875,-1.26 -1.07875,-1.2575 -1.3475,-1.1675 -1.52875,-0.9 -1.61875,-0.7175 -1.88625,-0.27 -1.8875,0.0888 0.8075,0.72125 0.72,0.98875 0.54,1.25625 0.35875,1.43875 0.35875,1.7075 0.27125,1.97625 0.26875,2.15875 0.18,2.33625 0.26875,2.515 0.36,2.60625 0.62875,2.60625 1.08,2.3375 1.4375,1.9775 2.0675,1.61625 2.60625,1.08 3.41625,0.35875 0,0"
         id="path8914"
         style="fill:#ffffff;fill-opacity:1;fill-rule:evenodd;stroke:none" />
    </g>
  </g>
</svg>
