<svg xmlns:dc="http://purl.org/dc/elements/1.1/" xmlns:cc="http://creativecommons.org/ns#" xmlns:rdf="http://www.w3.org/1999/02/22-rdf-syntax-ns#" xmlns:svg="http://www.w3.org/2000/svg" xmlns="http://www.w3.org/2000/svg" xmlns:sodipodi="http://sodipodi.sourceforge.net/DTD/sodipodi-0.dtd" xmlns:inkscape="http://www.inkscape.org/namespaces/inkscape" width="63.3" height="25.2" version="1.1" inkscape:version="0.48.2 r9819" inkscape:export-filename="/home/alvatar/web/design.png" inkscape:export-xdpi="300.0441" inkscape:export-ydpi="300.0441"><defs><clipPath clipPathUnits="userSpaceOnUse"><path d="m 0 0 9368.6 0 0 14669 L 0 14669 0 0 z" inkscape:connector-curvature="0"/></clipPath></defs><metadata><rdf:RDF><cc:Work rdf:about=""><dc:format>image/svg+xml</dc:format><dc:type rdf:resource="http://purl.org/dc/dcmitype/StillImage"/><dc:title/></cc:Work></rdf:RDF></metadata><g inkscape:label="Layer 1" inkscape:groupmode="layer" transform="translate(-342.40666,-489.13118)"><g transform="matrix(1.25,0,0,-1.25,-1491.0659,1012.736)"/><g transform="matrix(1.25,0,0,-1.25,-1491.0659,1012.736)"/><g transform="matrix(0.35506262,0,0,0.35506262,425.16383,320.11659)" style="fill:#ffffff;fill-opacity:1" inkscape:export-filename="/data/projects/fourthbit/app/images/swirly.png" inkscape:export-xdpi="190.93716" inkscape:export-ydpi="190.93716"><path style="fill:#ffffff;fill-opacity:1;fill-rule:evenodd;stroke:none" d="m -184.7 500 1.3 -0.1 1.4 0 1.4 0.1 1.3 0.2 1.4 0.4 1.4 0.3 1.3 0.5 1.3 0.4 1.3 0.5 1.3 0.5 1.3 0.5 1.3 0.6 1.2 0.6 1.1 0.5 1 0.6 1 0.5 1.3 0.8 1.3 1.1 1.3 1.2 1.3 1.4 1.2 1.4 0.9 1.7 0.7 1.7 0.4 1.8 0.1 1.3 -0.3 1.4 -0.5 1.3 -0.8 1.3 -1.1 1.1 -1.4 0.8 -1.8 0.5 -2.2 0.1 -1.3 -0.3 -1.2 -0.5 -0.9 -0.8 -0.8 -1.1 -0.6 -1.3 -0.5 -1.5 -0.4 -1.7 -0.4 -1.9 -0.2 -1.1 -0.2 -1.1 -0.3 -1.2 -0.4 -1.2 -0.5 -1.3 -0.5 -1.3 -0.6 -1.2 -0.7 -1.3 -0.9 -1.2 -1 -1.1 -1.2 -1 -1.3 -1 -1.5 -0.8 -1.6 -0.7 -1.9 -0.5 -2.1 -0.4 0 0" inkscape:connector-curvature="0"/><path style="fill:#ffffff;fill-opacity:1;fill-rule:evenodd;stroke:none" d="m -103.3 500 -1.4 -0.1 -1.4 0 -1.4 0.1 -1.3 0.2 -1.4 0.4 -1.3 0.3 -1.4 0.5 -1.3 0.4 -1.3 0.5 -1.3 0.5 -1.2 0.5 -1.3 0.6 -1.2 0.6 -1.1 0.5 -1 0.6 -1 0.5 -1.3 0.8 -1.3 1.1 -1.3 1.2 -1.3 1.4 -1.1 1.4 -1 1.7 -0.7 1.7 -0.4 1.8 -0.1 1.3 0.3 1.4 0.5 1.3 0.8 1.3 1.1 1.1 1.4 0.8 1.8 0.5 2.2 0.1 1.3 -0.3 1.2 -0.5 1 -0.8 0.8 -1.1 0.6 -1.3 0.5 -1.5 0.4 -1.7 0.4 -1.9 0.2 -1.1 0.2 -1.1 0.3 -1.2 0.4 -1.2 0.5 -1.3 0.5 -1.3 0.6 -1.2 0.8 -1.3 0.8 -1.2 1 -1.1 1.2 -1 1.3 -1 1.4 -0.8 1.7 -0.7 1.8 -0.5 2.1 -0.4 0 0" inkscape:connector-curvature="0"/><path style="fill:#ffffff;fill-opacity:1;fill-rule:evenodd;stroke:none" d="m -174.6 539.9 1 0.5 1 0.5 1.1 0.4 1 0.5 1.1 0.4 1.1 0.4 1.1 0.4 1.2 0.3 1.1 0.3 1.2 0.2 1.1 0.2 1.2 0.1 1.2 0 1.2 -0.1 1.2 -0.2 1.2 -0.2 1.6 -0.5 1.7 -0.5 1.6 -0.7 1.7 -0.9 1.6 -1.1 1.6 -1.3 1.6 -1.5 1.6 -1.7 1.4 1.6 1.5 1.4 1.5 1.2 1.5 1.1 1.5 0.9 1.5 0.8 1.5 0.5 1.5 0.4 1.5 0.4 1.5 0.2 1.4 0.1 1.5 0 1.5 -0.2 1.4 -0.3 1.4 -0.3 1.4 -0.4 1.4 -0.5 1.3 -0.6 1.3 -0.6 1.3 -0.6 1.3 -0.7 1.2 -0.7 1.3 -0.8 1.1 -0.8 1.2 -0.8 1 -0.8 1 -0.8 1 -0.9 0.9 -0.8 0.8 -0.7 0.7 -0.8 0.7 -0.7 1.3 -1.3 1.3 -1.2 1.3 -1.1 1.2 -1 1.2 -0.8 1.2 -0.8 1.2 -0.7 1.2 -0.6 1.2 -0.5 1.3 -0.5 1.2 -0.4 1.2 -0.4 1.3 -0.5 1.3 -0.4 1.3 -0.4 1.3 -0.4 1.4 -0.3 1.5 0 1.7 0.1 1.7 0.4 1.8 0.5 1.8 0.6 1.8 0.7 1.8 0.9 1.8 1 1.7 1 1.6 1.2 1.5 1.2 1.4 1.2 1.3 1.3 1.2 1.3 0.9 1.3 -0.5 -1.4 -0.6 -1.4 -0.7 -1.4 -0.9 -1.3 -1 -1.3 -1.1 -1.2 -1.1 -1.2 -1.1 -1.1 -1.2 -1 -1.1 -1 -1.1 -0.8 -1 -0.7 -0.9 -0.6 -0.9 -0.5 -0.7 -0.4 -0.5 -0.3 -0.6 -0.3 -1 -0.4 -1.3 -0.5 -1.5 -0.5 -1.8 -0.5 -2 -0.4 -2.2 -0.4 -2.4 -0.2 -2.7 0.1 -2.7 0.3 -3 0.5 -3 1 -3.1 1.3 -3.1 1.8 -3.2 2.2 -3.2 2.8 -3.2 2.7 -3.1 1.9 -3 1.3 -2.9 0.7 -2.7 0.2 -2.6 -0.3 -2.4 -0.7 -2.3 -1 -2.2 -1.3 -2 -1.5 -1.8 -1.7 -1.7 -1.8 -1.4 -1.8 -1.3 -1.8 -1.2 -1.7 -0.9 -1.6 -1 1.6 -1.1 1.7 -1.3 1.8 -1.5 1.8 -1.7 1.8 -1.8 1.7 -2 1.5 -2.2 1.3 -2.3 1 -2.5 0.7 -2.6 0.3 -2.7 -0.2 -2.9 -0.7 -3 -1.3 -3.1 -1.9 -3.2 -2.7 -3.2 -2.8 -3.2 -2.2 -3.1 -1.8 -3.1 -1.3 -3 -1 -2.9 -0.5 -2.8 -0.3 -2.6 -0.1 -2.4 0.2 -2.2 0.4 -2.1 0.4 -1.8 0.5 -1.5 0.5 -1.3 0.5 -1 0.4 -0.7 0.3 -0.5 0.3 -0.7 0.4 -0.9 0.5 -0.9 0.6 -1 0.7 -1.1 0.8 -1.1 1 -1.2 1 -1.1 1.1 -1.1 1.2 -1.1 1.2 -1 1.3 -0.9 1.3 -0.7 1.4 -0.6 1.4 -0.5 1.4 0.9 -1.3 1.2 -1.3 1.3 -1.3 1.4 -1.2 1.5 -1.2 1.6 -1.2 1.7 -1 1.8 -1 1.8 -0.9 1.8 -0.7 1.8 -0.6 1.8 -0.5 1.7 -0.4 1.7 -0.1 1.5 0 1.4 0.3 1.3 0.4 1.3 0.4 1.3 0.4 1.3 0.5 1.2 0.4 1.2 0.4 1.3 0.5 1.2 0.5 1.2 0.6 1.2 0.7 1.2 0.8 1.2 0.8 1.2 1 1.3 1.1 1.3 1.2 1.3 1.3 1 1 1.1 1.1 1.3 1.2 1.3 1.2 1.4 1.1 1.5 1.2 1.6 1.1 1.7 1.1 0 0" inkscape:connector-curvature="0"/><path style="fill:#ffffff;fill-opacity:1;fill-rule:evenodd;stroke:none" d="m -143.9 509.9 3.3 -0.4 2.6 -1.1 2 -1.6 1.5 -2 1 -2.3 0.6 -2.6 0.5 -2.6 0.3 -2.5 0.2 -2.3 0.2 -2.2 0.3 -2 0.4 -1.7 0.4 -1.4 0.5 -1.3 0.6 -1 0.9 -0.7 -2 -0.1 -1.8 0.3 -1.7 0.7 -1.5 0.9 -1.3 1.2 -1.1 1.3 -0.8 1.3 -0.4 1.3 -0.1 -2.4 -0.5 -2.1 -0.7 -1.7 -0.9 -1.3 -0.9 -1.1 -0.8 -0.8 -0.5 -0.5 -0.3 -0.3 -0.3 0.3 -0.6 0.5 -0.8 0.8 -0.9 1.1 -0.9 1.3 -0.7 1.7 -0.5 2.1 -0.1 2.4 -0.4 -1.3 -0.8 -1.3 -1.1 -1.3 -1.3 -1.2 -1.5 -0.9 -1.6 -0.7 -1.9 -0.3 -1.9 0.1 0.8 0.7 0.7 1 0.5 1.3 0.4 1.4 0.4 1.7 0.3 2 0.3 2.2 0.2 2.3 0.3 2.5 0.4 2.6 0.6 2.6 1.1 2.3 1.4 2 2.1 1.6 2.6 1.1 3.4 0.4 0 0" inkscape:connector-curvature="0"/></g></g></svg>